# File created by Blade
# Date/Time:  Fri Jan 16 19:18:57 2015
# Frame Rate: 120.000 fps
#------------------------------------------------------
:FULLY-SPECIFIED
:DEGREES
381
root 19.971654 35.750157 -22.330984 -167.988877 0.974065 -180.138509
Spine -26.948319 4.416545 -1.028494
Head 21.225415 -0.616672 -18.485270
LeftShoulder -18.247937 -48.889217 42.803651
LeftArm 31.637965 -41.974758 0.403805
LeftForeArm -65.487370 0.000000 88.473854
LeftHand 1.472392 -0.000000 -12.674607
LeftHandThumb1 -26.253704 0.000000 33.147579
RightShoulder -12.876660 26.248915 -63.752388
RightArm 135.364247 64.909420 91.352060
RightForeArm 45.749104 -0.000000 107.628527
RightHand 13.225026 -0.000000 5.500790
RightHandThumb1 -24.326973 -0.000000 -32.862282
LeftUpLeg -2.588822 9.812203 -1.428356
LeftLeg -7.012934 -0.000000 0.000000
LeftFoot -19.472205 25.660491 -18.316928
LeftToeBase 23.559791 -0.000000 -0.000000
RightUpLeg -4.324363 -3.712758 -0.451144
RightLeg -2.529379 -0.000000 0.000000
RightFoot -21.568851 -25.289130 17.299764
RightToeBase 23.033992 -0.000000 -0.000000
382
root 19.973646 35.749784 -22.331362 -167.993176 0.980212 -180.140969
Spine -26.952201 4.411271 -1.031147
Head 21.290963 -0.587428 -18.471849
LeftShoulder -18.235936 -48.866592 42.762252
LeftArm 31.609124 -41.962035 0.403100
LeftForeArm -65.483712 0.000000 88.512412
LeftHand 1.485383 -0.000000 -12.664863
LeftHandThumb1 -26.253704 0.000000 33.147579
RightShoulder -12.854600 26.245540 -63.749211
RightArm 135.361598 64.870110 91.304142
RightForeArm 45.785916 -0.000000 107.611453
RightHand 13.241893 -0.000000 5.495057
RightHandThumb1 -24.326973 -0.000000 -32.862282
LeftUpLeg -2.586972 9.805209 -1.423498
LeftLeg -7.001947 -0.000000 0.000000
LeftFoot -19.487474 25.659021 -18.319244
LeftToeBase 23.606501 -0.000000 -0.000000
RightUpLeg -4.317022 -3.719322 -0.448724
RightLeg -2.537312 -0.000000 0.000000
RightFoot -21.551115 -25.248508 17.378402
RightToeBase 22.854000 -0.000000 -0.000000
383
root 19.976290 35.750305 -22.332111 -168.022798 0.977183 -180.147434
Spine -26.928779 4.387024 -1.020702
Head 21.370324 -0.554388 -18.506738
LeftShoulder -18.205245 -48.819819 42.658064
LeftArm 31.618285 -41.981528 0.425816
LeftForeArm -65.501468 -0.000000 88.528432
LeftHand 1.523749 -0.000000 -12.686889
LeftHandThumb1 -26.253704 0.000000 33.147579
RightShoulder -12.787110 25.909934 -63.571075
RightArm 136.172978 64.797239 91.867840
RightForeArm 45.785263 0.000000 107.525867
RightHand 13.299071 -0.000000 5.482873
RightHandThumb1 -24.326973 -0.000000 -32.862282
LeftUpLeg -2.555743 9.804077 -1.419755
LeftLeg -7.002592 -0.000000 0.000000
LeftFoot -19.475189 25.646686 -18.334668
LeftToeBase 23.593251 -0.000000 -0.000000
RightUpLeg -4.287777 -3.762405 -0.447571
RightLeg -2.535957 -0.000000 0.000000
RightFoot -21.541976 -25.217794 17.378941
RightToeBase 22.818749 -0.000000 -0.000000
384
root 19.978378 35.749854 -22.332176 -168.024780 0.971518 -180.149647
Spine -26.946926 4.376578 -1.004010
Head 21.440554 -0.464581 -18.510971
LeftShoulder -18.132113 -48.825051 42.551047
LeftArm 31.577286 -41.954352 0.477209
LeftForeArm -65.508052 -0.000000 88.538976
LeftHand 1.512066 -0.000000 -12.738711
LeftHandThumb1 -26.253704 0.000000 33.147579
RightShoulder -12.765944 25.863562 -63.601959
RightArm 136.184528 64.743708 91.857140
RightForeArm 45.808778 0.000000 107.531641
RightHand 13.311364 -0.000000 5.475143
RightHandThumb1 -24.326973 -0.000000 -32.862282
LeftUpLeg -2.554199 9.809073 -1.418569
LeftLeg -7.002495 -0.000000 0.000000
LeftFoot -19.484772 25.641556 -18.337089
LeftToeBase 23.622720 -0.000000 -0.000000
RightUpLeg -4.284350 -3.764569 -0.445102
RightLeg -2.534155 -0.000000 0.000000
RightFoot -21.561449 -25.226113 17.362613
RightToeBase 22.860028 -0.000000 -0.000000
385
root 19.981900 35.749431 -22.332368 -168.029571 0.968701 -180.144162
Spine -26.949140 4.348181 -0.992837
Head 21.477900 -0.420182 -18.500274
LeftShoulder -18.101627 -48.857230 42.531302
LeftArm 31.494176 -41.900026 0.559655
LeftForeArm -65.552999 -0.000000 88.572520
LeftHand 1.494479 -0.000000 -12.750730
LeftHandThumb1 -26.253704 0.000000 33.147579
RightShoulder -12.762766 25.832902 -63.597732
RightArm 136.224865 64.687448 91.864188
RightForeArm 45.838929 -0.000000 107.536812
RightHand 13.301729 -0.000000 5.502509
RightHandThumb1 -24.326973 -0.000000 -32.862282
LeftUpLeg -2.551725 9.793912 -1.403267
LeftLeg -6.994534 -0.000000 0.000000
LeftFoot -19.487436 25.647351 -18.334910
LeftToeBase 23.601333 -0.000000 -0.000000
RightUpLeg -4.274690 -3.771405 -0.433844
RightLeg -2.541540 -0.000000 0.000000
RightFoot -21.558244 -25.215020 17.361653
RightToeBase 22.856361 -0.000000 -0.000000
386
root 19.985126 35.748525 -22.333354 -168.020827 0.960339 -180.135278
Spine -26.954035 4.311998 -0.974561
Head 21.476453 -0.388033 -18.537381
LeftShoulder -18.073571 -48.900242 42.557378
LeftArm 31.316615 -41.849018 0.704067
LeftForeArm -65.624229 -0.000000 88.629642
LeftHand 1.493574 -0.000000 -12.732645
LeftHandThumb1 -26.253704 0.000000 33.147579
RightShoulder -12.727611 25.747715 -63.573545
RightArm 136.505006 64.730648 92.086785
RightForeArm 45.933340 -0.000000 107.516385
RightHand 13.316915 -0.000000 5.494415
RightHandThumb1 -24.326973 -0.000000 -32.862282
LeftUpLeg -2.561165 9.791602 -1.387863
LeftLeg -6.990130 -0.000000 0.000000
LeftFoot -19.504380 25.638053 -18.321244
LeftToeBase 23.651359 -0.000000 -0.000000
RightUpLeg -4.276294 -3.764365 -0.420271
RightLeg -2.546536 -0.000000 0.000000
RightFoot -21.555879 -25.222386 17.349631
RightToeBase 22.848465 -0.000000 -0.000000
387
root 19.989636 35.748467 -22.332724 -168.017262 0.956956 -180.128724
Spine -26.948563 4.258281 -0.962114
Head 21.450390 -0.316467 -18.520430
LeftShoulder -18.029347 -48.957419 42.615529
LeftArm 31.065726 -41.807328 0.910097
LeftForeArm -65.710293 -0.000000 88.715922
LeftHand 1.476907 -0.000000 -12.715692
LeftHandThumb1 -26.253704 0.000000 33.147579
RightShoulder -12.784500 25.613161 -63.524680
RightArm 136.771041 64.689101 92.291973
RightForeArm 45.967933 -0.000000 107.509947
RightHand 13.366315 -0.000000 5.480086
RightHandThumb1 -24.326973 -0.000000 -32.862282
LeftUpLeg -2.570716 9.795284 -1.375407
LeftLeg -6.981569 -0.000000 0.000000
LeftFoot -19.510303 25.629943 -18.329714
LeftToeBase 23.623000 -0.000000 -0.000000
RightUpLeg -4.283509 -3.769496 -0.405565
RightLeg -2.542530 -0.000000 0.000000
RightFoot -21.560614 -25.198548 17.393310
RightToeBase 22.783817 -0.000000 -0.000000
388
root 19.994429 35.748553 -22.332276 -168.025888 0.962924 -180.120459
Spine -26.928325 4.208410 -0.945011
Head 21.421451 -0.249313 -18.529108
LeftShoulder -17.936107 -48.996677 42.613093
LeftArm 30.818449 -41.813186 1.173975
LeftForeArm -65.772997 0.000000 88.779757
LeftHand 1.529695 0.000000 -12.626394
LeftHandThumb1 -26.253704 0.000000 33.147579
RightShoulder -12.846037 25.483271 -63.461886
RightArm 137.028685 64.692296 92.467796
RightForeArm 46.045015 -0.000000 107.495189
RightHand 13.423667 -0.000000 5.457435
RightHandThumb1 -24.326973 -0.000000 -32.862282
LeftUpLeg -2.564046 9.815624 -1.361369
LeftLeg -6.978932 -0.000000 0.000000
LeftFoot -19.493093 25.624047 -18.313526
LeftToeBase 23.597051 -0.000000 -0.000000
RightUpLeg -4.282246 -3.765036 -0.391453
RightLeg -2.527970 -0.000000 0.000000
RightFoot -21.573752 -25.214678 17.341559
RightToeBase 22.917639 -0.000000 -0.000000
389
root 19.999298 35.749384 -22.332963 -168.028578 0.967677 -180.111773
Spine -26.912332 4.149892 -0.931408
Head 21.366003 -0.194280 -18.534905
LeftShoulder -17.927902 -49.078747 42.711220
LeftArm 30.625182 -41.800515 1.320581
LeftForeArm -65.816032 -0.000000 88.856612
LeftHand 1.507377 0.000000 -12.653138
LeftHandThumb1 -26.253704 0.000000 33.147579
RightShoulder -12.889337 25.349473 -63.352247
RightArm 137.374642 64.699244 92.675906
RightForeArm 46.120861 -0.000000 107.439310
RightHand 13.446766 -0.000000 5.478908
RightHandThumb1 -24.326973 -0.000000 -32.862282
LeftUpLeg -2.560758 9.830344 -1.347914
LeftLeg -6.978688 -0.000000 0.000000
LeftFoot -19.498901 25.618313 -18.336693
LeftToeBase 23.611586 -0.000000 -0.000000
RightUpLeg -4.284656 -3.777818 -0.375454
RightLeg -2.517203 -0.000000 0.000000
RightFoot -21.563463 -25.183286 17.368170
RightToeBase 22.818742 -0.000000 -0.000000
390
root 20.004167 35.749713 -22.332238 -168.024087 0.977493 -180.099502
Spine -26.901879 4.107991 -0.923551
Head 21.318915 -0.159448 -18.537941
LeftShoulder -17.890541 -49.150158 42.772526
LeftArm 30.494736 -41.847629 1.421068
LeftForeArm -65.804765 -0.000000 88.904183
LeftHand 1.502897 -0.000000 -12.578886
LeftHandThumb1 -26.253704 0.000000 33.147579
RightShoulder -12.923001 25.315275 -63.262936
RightArm 137.500654 64.785530 92.666816
RightForeArm 46.250825 -0.000000 107.355590
RightHand 13.580481 -0.000000 5.573126
RightHandThumb1 -24.326973 -0.000000 -32.862282
LeftUpLeg -2.567406 9.844016 -1.330649
LeftLeg -6.973053 -0.000000 0.000000
LeftFoot -19.496099 25.621794 -18.311931
LeftToeBase 23.600992 -0.000000 -0.000000
RightUpLeg -4.299605 -3.783723 -0.354328
RightLeg -2.502498 -0.000000 0.000000
RightFoot -21.567081 -25.150706 17.380061
RightToeBase 22.883793 -0.000000 -0.000000
